<?xml version="1.0" encoding="UTF-8"?>
<svg xmlns="http://www.w3.org/2000/svg" viewBox="0 0 1200 900" width="1200" height="900">
  <defs>
    <!-- Azure Blue Gradient -->
    <linearGradient id="azureBlue" x1="0%" y1="0%" x2="0%" y2="100%">
      <stop offset="0%" style="stop-color:#0078D4;stop-opacity:1" />
      <stop offset="100%" style="stop-color:#005A9E;stop-opacity:1" />
    </linearGradient>
    <!-- Green Gradient (Enable) -->
    <linearGradient id="greenGrad" x1="0%" y1="0%" x2="0%" y2="100%">
      <stop offset="0%" style="stop-color:#107C10;stop-opacity:1" />
      <stop offset="100%" style="stop-color:#0B5C0B;stop-opacity:1" />
    </linearGradient>
    <!-- Red Gradient (Disable) -->
    <linearGradient id="redGrad" x1="0%" y1="0%" x2="0%" y2="100%">
      <stop offset="0%" style="stop-color:#D13438;stop-opacity:1" />
      <stop offset="100%" style="stop-color:#A4262C;stop-opacity:1" />
    </linearGradient>
    <!-- Purple Gradient (Graph API) -->
    <linearGradient id="purpleGrad" x1="0%" y1="0%" x2="0%" y2="100%">
      <stop offset="0%" style="stop-color:#8764B8;stop-opacity:1" />
      <stop offset="100%" style="stop-color:#5C2D91;stop-opacity:1" />
    </linearGradient>
    <!-- Entra ID Blue -->
    <linearGradient id="entraBlue" x1="0%" y1="0%" x2="0%" y2="100%">
      <stop offset="0%" style="stop-color:#00BCF2;stop-opacity:1" />
      <stop offset="100%" style="stop-color:#0078D4;stop-opacity:1" />
    </linearGradient>
    <!-- Resource Group Background -->
    <linearGradient id="rgGradient" x1="0%" y1="0%" x2="0%" y2="100%">
      <stop offset="0%" style="stop-color:#F3F3F3;stop-opacity:1" />
      <stop offset="100%" style="stop-color:#E6E6E6;stop-opacity:1" />
    </linearGradient>
    <!-- Drop Shadow -->
    <filter id="shadow" x="-20%" y="-20%" width="140%" height="140%">
      <feDropShadow dx="2" dy="3" stdDeviation="4" flood-opacity="0.15"/>
    </filter>
    <filter id="shadowStrong" x="-20%" y="-20%" width="140%" height="140%">
      <feDropShadow dx="3" dy="4" stdDeviation="6" flood-opacity="0.25"/>
    </filter>
    <!-- Arrow markers -->
    <marker id="arrowGreen" markerWidth="12" markerHeight="12" refX="10" refY="6" orient="auto">
      <path d="M2,2 L10,6 L2,10 L4,6 Z" fill="#107C10"/>
    </marker>
    <marker id="arrowRed" markerWidth="12" markerHeight="12" refX="10" refY="6" orient="auto">
      <path d="M2,2 L10,6 L2,10 L4,6 Z" fill="#D13438"/>
    </marker>
    <marker id="arrowPurple" markerWidth="12" markerHeight="12" refX="10" refY="6" orient="auto">
      <path d="M2,2 L10,6 L2,10 L4,6 Z" fill="#5C2D91"/>
    </marker>
    <marker id="arrowBlue" markerWidth="12" markerHeight="12" refX="10" refY="6" orient="auto">
      <path d="M2,2 L10,6 L2,10 L4,6 Z" fill="#0078D4"/>
    </marker>
    <!-- Icons -->
    <symbol id="icon-automation" viewBox="0 0 50 50">
      <rect x="5" y="5" width="40" height="40" rx="6" fill="#0078D4"/>
      <circle cx="25" cy="20" r="8" fill="white" opacity="0.9"/>
      <path d="M25 15 L25 25 L32 25" stroke="#0078D4" stroke-width="2" fill="none"/>
      <rect x="12" y="32" width="26" height="4" rx="2" fill="white" opacity="0.7"/>
    </symbol>
    <symbol id="icon-runbook" viewBox="0 0 50 50">
      <rect x="8" y="5" width="34" height="40" rx="3" fill="white" stroke="#0078D4" stroke-width="2"/>
      <rect x="12" y="12" width="20" height="3" rx="1" fill="#0078D4"/>
      <rect x="12" y="18" width="26" height="2" rx="1" fill="#BEBBB8"/>
      <rect x="12" y="23" width="22" height="2" rx="1" fill="#BEBBB8"/>
      <rect x="12" y="28" width="18" height="2" rx="1" fill="#BEBBB8"/>
      <rect x="12" y="33" width="24" height="2" rx="1" fill="#BEBBB8"/>
    </symbol>
    <symbol id="icon-schedule" viewBox="0 0 50 50">
      <circle cx="25" cy="25" r="20" fill="white" stroke="#0078D4" stroke-width="2"/>
      <circle cx="25" cy="25" r="16" fill="none" stroke="#E6E6E6" stroke-width="1"/>
      <path d="M25 12 L25 25 L35 25" stroke="#0078D4" stroke-width="3" stroke-linecap="round" fill="none"/>
      <circle cx="25" cy="25" r="3" fill="#0078D4"/>
    </symbol>
    <symbol id="icon-graph" viewBox="0 0 50 50">
      <rect x="5" y="5" width="40" height="40" rx="6" fill="#5C2D91"/>
      <circle cx="18" cy="18" r="5" fill="white"/>
      <circle cx="32" cy="18" r="5" fill="white"/>
      <circle cx="25" cy="32" r="5" fill="white"/>
      <line x1="18" y1="23" x2="25" y2="27" stroke="white" stroke-width="2"/>
      <line x1="32" y1="23" x2="25" y2="27" stroke="white" stroke-width="2"/>
      <line x1="18" y1="18" x2="32" y2="18" stroke="white" stroke-width="2"/>
    </symbol>
    <symbol id="icon-entra" viewBox="0 0 50 50">
      <circle cx="25" cy="25" r="20" fill="url(#entraBlue)"/>
      <circle cx="25" cy="18" r="7" fill="white"/>
      <ellipse cx="25" cy="38" rx="12" ry="8" fill="white"/>
    </symbol>
    <symbol id="icon-user" viewBox="0 0 50 50">
      <circle cx="25" cy="18" r="10" fill="#0078D4"/>
      <ellipse cx="25" cy="42" rx="15" ry="10" fill="#0078D4"/>
    </symbol>
    <symbol id="icon-variable" viewBox="0 0 50 50">
      <rect x="5" y="10" width="40" height="30" rx="4" fill="#FFB900"/>
      <text x="25" y="30" text-anchor="middle" font-family="Consolas" font-size="14" font-weight="bold" fill="white">{x}</text>
    </symbol>
  </defs>

  <!-- Background -->
  <rect width="1200" height="900" fill="#FAFAFA"/>

  <!-- Title Section -->
  <text x="600" y="45" text-anchor="middle" font-family="Segoe UI, Arial" font-size="28" font-weight="600" fill="#323130">
    Student Time Management for Microsoft 365
  </text>
  <text x="600" y="75" text-anchor="middle" font-family="Segoe UI, Arial" font-size="16" fill="#605E5C">
    Azure Automation Solution Architecture
  </text>

  <!-- Azure Cloud Boundary -->
  <rect x="50" y="100" width="700" height="520" rx="12" fill="none" stroke="#0078D4" stroke-width="3" stroke-dasharray="12,6"/>
  <rect x="60" y="88" width="160" height="28" fill="url(#azureBlue)" rx="5"/>
  <text x="140" y="107" text-anchor="middle" font-family="Segoe UI, Arial" font-size="13" font-weight="600" fill="white">☁️ Microsoft Azure</text>

  <!-- Resource Group -->
  <rect x="80" y="130" width="640" height="470" rx="10" fill="url(#rgGradient)" stroke="#BEBBB8" stroke-width="1" filter="url(#shadow)"/>
  <rect x="90" y="118" width="260" height="26" fill="#605E5C" rx="5"/>
  <text x="220" y="136" text-anchor="middle" font-family="Segoe UI, Arial" font-size="12" font-weight="600" fill="white">
    📦 rg-student-access-automation
  </text>

  <!-- Automation Account Box -->
  <rect x="110" y="160" width="580" height="220" rx="8" fill="white" stroke="#0078D4" stroke-width="2" filter="url(#shadow)"/>
  <rect x="110" y="160" width="580" height="40" rx="8" fill="url(#azureBlue)"/>
  <rect x="110" y="192" width="580" height="8" fill="url(#azureBlue)"/>
  <use href="#icon-automation" x="125" y="165" width="30" height="30"/>
  <text x="400" y="185" text-anchor="middle" font-family="Segoe UI, Arial" font-size="16" font-weight="600" fill="white">
    Azure Automation Account: StudentAccessAutomation
  </text>

  <!-- Enable Runbook -->
  <g transform="translate(140, 220)">
    <rect x="0" y="0" width="200" height="140" rx="8" fill="white" stroke="#107C10" stroke-width="3" filter="url(#shadow)"/>
    <rect x="0" y="0" width="200" height="35" rx="8" fill="url(#greenGrad)"/>
    <rect x="0" y="28" width="200" height="7" fill="url(#greenGrad)"/>
    <text x="100" y="24" text-anchor="middle" font-family="Segoe UI, Arial" font-size="12" font-weight="600" fill="white">🟢 Enable-StudentAccess</text>
    <use href="#icon-runbook" x="75" y="45" width="50" height="50"/>
    <text x="100" y="108" text-anchor="middle" font-family="Segoe UI, Arial" font-size="11" fill="#323130">PowerShell 7.2</text>
    <text x="100" y="125" text-anchor="middle" font-family="Segoe UI, Arial" font-size="10" fill="#107C10" font-weight="600">accountEnabled = true</text>
  </g>

  <!-- Disable Runbook -->
  <g transform="translate(460, 220)">
    <rect x="0" y="0" width="200" height="140" rx="8" fill="white" stroke="#D13438" stroke-width="3" filter="url(#shadow)"/>
    <rect x="0" y="0" width="200" height="35" rx="8" fill="url(#redGrad)"/>
    <rect x="0" y="28" width="200" height="7" fill="url(#redGrad)"/>
    <text x="100" y="24" text-anchor="middle" font-family="Segoe UI, Arial" font-size="12" font-weight="600" fill="white">🔴 Disable-StudentAccess</text>
    <use href="#icon-runbook" x="75" y="45" width="50" height="50"/>
    <text x="100" y="108" text-anchor="middle" font-family="Segoe UI, Arial" font-size="11" fill="#323130">PowerShell 7.2</text>
    <text x="100" y="125" text-anchor="middle" font-family="Segoe UI, Arial" font-size="10" fill="#D13438" font-weight="600">accountEnabled = false</text>
  </g>

  <!-- Schedule Icons -->
  <g transform="translate(180, 365)">
    <use href="#icon-schedule" x="0" y="0" width="60" height="60"/>
    <text x="30" y="75" text-anchor="middle" font-family="Segoe UI, Arial" font-size="11" font-weight="600" fill="#323130">⏰ 07:55 AM</text>
    <text x="30" y="90" text-anchor="middle" font-family="Segoe UI, Arial" font-size="10" fill="#605E5C">Mon - Fri</text>
  </g>

  <g transform="translate(500, 365)">
    <use href="#icon-schedule" x="0" y="0" width="60" height="60"/>
    <text x="30" y="75" text-anchor="middle" font-family="Segoe UI, Arial" font-size="11" font-weight="600" fill="#323130">⏰ 04:05 PM</text>
    <text x="30" y="90" text-anchor="middle" font-family="Segoe UI, Arial" font-size="10" fill="#605E5C">Mon - Fri</text>
  </g>

  <!-- Variables Box -->
  <g transform="translate(110, 470)">
    <rect x="0" y="0" width="580" height="110" rx="6" fill="white" stroke="#FFB900" stroke-width="2" filter="url(#shadow)"/>
    <rect x="0" y="0" width="580" height="28" rx="6" fill="#FFB900"/>
    <rect x="0" y="22" width="580" height="6" fill="#FFB900"/>
    <text x="290" y="20" text-anchor="middle" font-family="Segoe UI, Arial" font-size="12" font-weight="600" fill="white">🔐 Encrypted Variables</text>
    
    <g transform="translate(20, 45)">
      <rect x="0" y="0" width="120" height="50" rx="4" fill="#FFF4CE" stroke="#FFB900"/>
      <text x="60" y="20" text-anchor="middle" font-family="Consolas" font-size="10" fill="#323130">TenantId</text>
      <text x="60" y="38" text-anchor="middle" font-family="Consolas" font-size="8" fill="#605E5C">abc123-...</text>
    </g>
    <g transform="translate(155, 45)">
      <rect x="0" y="0" width="120" height="50" rx="4" fill="#FFF4CE" stroke="#FFB900"/>
      <text x="60" y="20" text-anchor="middle" font-family="Consolas" font-size="10" fill="#323130">ClientId</text>
      <text x="60" y="38" text-anchor="middle" font-family="Consolas" font-size="8" fill="#605E5C">def456-...</text>
    </g>
    <g transform="translate(290, 45)">
      <rect x="0" y="0" width="130" height="50" rx="4" fill="#FFF4CE" stroke="#D13438"/>
      <text x="65" y="20" text-anchor="middle" font-family="Consolas" font-size="10" fill="#323130">🔒 ClientSecret</text>
      <text x="65" y="38" text-anchor="middle" font-family="Consolas" font-size="8" fill="#605E5C">********</text>
    </g>
    <g transform="translate(435, 45)">
      <rect x="0" y="0" width="125" height="50" rx="4" fill="#FFF4CE" stroke="#FFB900"/>
      <text x="62" y="20" text-anchor="middle" font-family="Consolas" font-size="10" fill="#323130">StudentGroupId</text>
      <text x="62" y="38" text-anchor="middle" font-family="Consolas" font-size="8" fill="#605E5C">ghi789-...</text>
    </g>
  </g>

  <!-- Microsoft Graph API Box -->
  <g transform="translate(780, 200)">
    <rect x="0" y="0" width="380" height="180" rx="10" fill="white" stroke="#5C2D91" stroke-width="3" filter="url(#shadowStrong)"/>
    <rect x="0" y="0" width="380" height="45" rx="10" fill="url(#purpleGrad)"/>
    <rect x="0" y="38" width="380" height="7" fill="url(#purpleGrad)"/>
    <use href="#icon-graph" x="15" y="8" width="30" height="30"/>
    <text x="190" y="30" text-anchor="middle" font-family="Segoe UI, Arial" font-size="15" font-weight="600" fill="white">Microsoft Graph API</text>
    
    <text x="20" y="70" font-family="Segoe UI, Arial" font-size="11" font-weight="600" fill="#323130">API Endpoints:</text>
    <text x="25" y="92" font-family="Consolas" font-size="10" fill="#5C2D91">GET  /groups/{id}/members</text>
    <text x="25" y="110" font-family="Consolas" font-size="10" fill="#5C2D91">GET  /users/{id}</text>
    <text x="25" y="128" font-family="Consolas" font-size="10" fill="#107C10">PATCH /users/{id}</text>
    <text x="185" y="128" font-family="Consolas" font-size="9" fill="#605E5C">{ accountEnabled: bool }</text>
    <text x="25" y="146" font-family="Consolas" font-size="10" fill="#D13438">POST /users/{id}/revokeSignInSessions</text>
    
    <rect x="20" y="155" width="100" height="18" rx="9" fill="#5C2D91"/>
    <text x="70" y="168" text-anchor="middle" font-family="Segoe UI, Arial" font-size="9" font-weight="600" fill="white">graph.microsoft.com</text>
  </g>

  <!-- Entra ID Box -->
  <g transform="translate(780, 430)">
    <rect x="0" y="0" width="380" height="280" rx="10" fill="white" stroke="#00BCF2" stroke-width="3" filter="url(#shadowStrong)"/>
    <rect x="0" y="0" width="380" height="45" rx="10" fill="url(#entraBlue)"/>
    <rect x="0" y="38" width="380" height="7" fill="url(#entraBlue)"/>
    <use href="#icon-entra" x="15" y="8" width="30" height="30"/>
    <text x="190" y="30" text-anchor="middle" font-family="Segoe UI, Arial" font-size="15" font-weight="600" fill="white">Microsoft Entra ID</text>
    
    <!-- App Registration -->
    <rect x="20" y="60" width="340" height="70" rx="6" fill="#E6F7FF" stroke="#00BCF2"/>
    <text x="190" y="82" text-anchor="middle" font-family="Segoe UI, Arial" font-size="11" font-weight="600" fill="#0078D4">App Registration: Student-Access-Automation</text>
    <text x="30" y="102" font-family="Segoe UI, Arial" font-size="9" fill="#107C10">✓ User.ReadWrite.All</text>
    <text x="140" y="102" font-family="Segoe UI, Arial" font-size="9" fill="#107C10">✓ Group.Read.All</text>
    <text x="250" y="102" font-family="Segoe UI, Arial" font-size="9" fill="#107C10">✓ Directory.Read.All</text>
    <text x="30" y="120" font-family="Segoe UI, Arial" font-size="8" fill="#605E5C">Application permissions (Admin consented)</text>
    
    <!-- Student Group -->
    <rect x="20" y="145" width="340" height="120" rx="6" fill="#F3F3F3" stroke="#BEBBB8"/>
    <text x="190" y="168" text-anchor="middle" font-family="Segoe UI, Arial" font-size="12" font-weight="600" fill="#323130">👨‍🎓 Student Security Group</text>
    <text x="190" y="186" text-anchor="middle" font-family="Segoe UI, Arial" font-size="10" fill="#605E5C">"Students-M365"</text>
    
    <!-- Student avatars -->
    <g transform="translate(50, 200)">
      <circle cx="0" cy="0" r="18" fill="#0078D4"/>
      <circle cx="0" cy="-5" r="6" fill="white"/>
      <ellipse cx="0" cy="8" rx="10" ry="6" fill="white"/>
    </g>
    <g transform="translate(100, 200)">
      <circle cx="0" cy="0" r="18" fill="#0078D4"/>
      <circle cx="0" cy="-5" r="6" fill="white"/>
      <ellipse cx="0" cy="8" rx="10" ry="6" fill="white"/>
    </g>
    <g transform="translate(150, 200)">
      <circle cx="0" cy="0" r="18" fill="#0078D4"/>
      <circle cx="0" cy="-5" r="6" fill="white"/>
      <ellipse cx="0" cy="8" rx="10" ry="6" fill="white"/>
    </g>
    <g transform="translate(200, 200)">
      <circle cx="0" cy="0" r="18" fill="#0078D4"/>
      <circle cx="0" cy="-5" r="6" fill="white"/>
      <ellipse cx="0" cy="8" rx="10" ry="6" fill="white"/>
    </g>
    <g transform="translate(250, 200)">
      <circle cx="0" cy="0" r="18" fill="#0078D4"/>
      <circle cx="0" cy="-5" r="6" fill="white"/>
      <ellipse cx="0" cy="8" rx="10" ry="6" fill="white"/>
    </g>
    <text x="300" y="205" font-family="Segoe UI, Arial" font-size="12" fill="#605E5C">...</text>
    
    <text x="190" y="250" text-anchor="middle" font-family="Segoe UI, Arial" font-size="10" fill="#605E5C">500 - 5,000 student accounts</text>
  </g>

  <!-- Flow Arrows -->
  <!-- Enable flow (green) -->
  <path d="M340 360 L340 420 Q340 440 360 440 L750 440 Q770 440 770 420 L770 390" 
        stroke="#107C10" stroke-width="4" fill="none" marker-end="url(#arrowGreen)" filter="url(#shadow)"/>
  <rect x="490" y="425" width="90" height="24" rx="12" fill="#107C10"/>
  <text x="535" y="441" text-anchor="middle" font-family="Segoe UI, Arial" font-size="10" font-weight="600" fill="white">ENABLE</text>
  
  <!-- Disable flow (red) -->
  <path d="M660 360 L660 400 Q660 420 680 420 L750 420 Q770 420 770 400 L770 390" 
        stroke="#D13438" stroke-width="4" fill="none" marker-end="url(#arrowRed)" filter="url(#shadow)"/>
  <rect x="680" y="405" width="90" height="24" rx="12" fill="#D13438"/>
  <text x="725" y="421" text-anchor="middle" font-family="Segoe UI, Arial" font-size="10" font-weight="600" fill="white">DISABLE</text>

  <!-- Graph to Entra -->
  <path d="M970 380 L970 430" 
        stroke="#5C2D91" stroke-width="4" fill="none" marker-end="url(#arrowPurple)"/>

  <!-- Timeline Section -->
  <g transform="translate(50, 650)">
    <rect x="0" y="0" width="1100" height="120" rx="8" fill="white" stroke="#BEBBB8" filter="url(#shadow)"/>
    <text x="550" y="25" text-anchor="middle" font-family="Segoe UI, Arial" font-size="14" font-weight="600" fill="#323130">📅 Daily Schedule (Monday - Friday)</text>
    
    <!-- Timeline bar -->
    <rect x="50" y="50" width="1000" height="30" rx="4" fill="#E6E6E6"/>
    
    <!-- Disabled morning -->
    <rect x="50" y="50" width="300" height="30" rx="4" fill="#FFCDD2"/>
    <text x="200" y="70" text-anchor="middle" font-family="Segoe UI, Arial" font-size="10" fill="#A4262C">🔴 DISABLED (00:00 - 07:55)</text>
    
    <!-- Enabled school hours -->
    <rect x="350" y="50" width="400" height="30" fill="#C8E6C9"/>
    <text x="550" y="70" text-anchor="middle" font-family="Segoe UI, Arial" font-size="11" font-weight="600" fill="#1B5E20">🟢 ENABLED - School Hours (07:55 - 16:05)</text>
    
    <!-- Disabled afternoon -->
    <rect x="750" y="50" width="300" height="30" rx="4" fill="#FFCDD2"/>
    <text x="900" y="70" text-anchor="middle" font-family="Segoe UI, Arial" font-size="10" fill="#A4262C">🔴 DISABLED (16:05 - 24:00)</text>
    
    <!-- Time markers -->
    <text x="50" y="100" text-anchor="middle" font-family="Consolas" font-size="9" fill="#605E5C">00:00</text>
    <text x="350" y="100" text-anchor="middle" font-family="Consolas" font-size="9" fill="#107C10" font-weight="bold">07:55</text>
    <text x="750" y="100" text-anchor="middle" font-family="Consolas" font-size="9" fill="#D13438" font-weight="bold">16:05</text>
    <text x="1050" y="100" text-anchor="middle" font-family="Consolas" font-size="9" fill="#605E5C">24:00</text>
  </g>

  <!-- Legend -->
  <g transform="translate(50, 790)">
    <rect x="0" y="0" width="500" height="90" rx="6" fill="white" stroke="#BEBBB8" filter="url(#shadow)"/>
    <text x="250" y="22" text-anchor="middle" font-family="Segoe UI, Arial" font-size="12" font-weight="600" fill="#323130">Legend</text>
    
    <rect x="20" y="35" width="20" height="12" fill="url(#greenGrad)"/>
    <text x="50" y="45" font-family="Segoe UI, Arial" font-size="10" fill="#605E5C">Enable Flow (Morning)</text>
    
    <rect x="180" y="35" width="20" height="12" fill="url(#redGrad)"/>
    <text x="210" y="45" font-family="Segoe UI, Arial" font-size="10" fill="#605E5C">Disable Flow (Afternoon)</text>
    
    <rect x="360" y="35" width="20" height="12" fill="url(#purpleGrad)"/>
    <text x="390" y="45" font-family="Segoe UI, Arial" font-size="10" fill="#605E5C">Graph API Call</text>
    
    <line x1="20" y1="65" x2="40" y2="65" stroke="#0078D4" stroke-width="3" stroke-dasharray="8,4"/>
    <text x="50" y="69" font-family="Segoe UI, Arial" font-size="10" fill="#605E5C">Azure Boundary</text>
    
    <rect x="180" y="58" width="20" height="12" fill="#FFF4CE" stroke="#FFB900"/>
    <text x="210" y="68" font-family="Segoe UI, Arial" font-size="10" fill="#605E5C">Encrypted Storage</text>
    
    <rect x="360" y="58" width="20" height="12" fill="url(#entraBlue)"/>
    <text x="390" y="68" font-family="Segoe UI, Arial" font-size="10" fill="#605E5C">Entra ID</text>
  </g>

  <!-- Cost & Info Box -->
  <g transform="translate(580, 790)">
    <rect x="0" y="0" width="280" height="90" rx="6" fill="#E6F7FF" stroke="#0078D4" filter="url(#shadow)"/>
    <text x="140" y="22" text-anchor="middle" font-family="Segoe UI, Arial" font-size="12" font-weight="600" fill="#0078D4">💰 Estimated Cost</text>
    <text x="140" y="50" text-anchor="middle" font-family="Segoe UI, Arial" font-size="24" font-weight="bold" fill="#107C10">€3 - €6 / month</text>
    <text x="140" y="72" text-anchor="middle" font-family="Segoe UI, Arial" font-size="10" fill="#605E5C">Azure Automation + Log Analytics</text>
  </g>

  <!-- Deployment Info -->
  <g transform="translate(890, 790)">
    <rect x="0" y="0" width="260" height="90" rx="6" fill="url(#azureBlue)" filter="url(#shadow)"/>
    <text x="130" y="22" text-anchor="middle" font-family="Segoe UI, Arial" font-size="12" font-weight="600" fill="white">🚀 Deployment Options</text>
    <text x="130" y="42" text-anchor="middle" font-family="Segoe UI, Arial" font-size="10" fill="white" opacity="0.9">• PowerShell (Direct)</text>
    <text x="130" y="58" text-anchor="middle" font-family="Segoe UI, Arial" font-size="10" fill="white" opacity="0.9">• Bicep (Infrastructure as Code)</text>
    <text x="130" y="74" text-anchor="middle" font-family="Segoe UI, Arial" font-size="10" fill="white" opacity="0.9">• GitHub Actions (CI/CD)</text>
  </g>
</svg>
